<?xml version="1.0" standalone="no"?>
<!DOCTYPE svg PUBLIC "-//W3C//DTD SVG 20010904//EN"
 "http://www.w3.org/TR/2001/REC-SVG-20010904/DTD/svg10.dtd">
<svg version="1.0" xmlns="http://www.w3.org/2000/svg"
 width="797.000000pt" height="797.000000pt" viewBox="0 0 797.000000 797.000000"
 preserveAspectRatio="xMidYMid meet">
<metadata>
Created by potrace 1.14, written by Peter Selinger 2001-2017
</metadata>
<g transform="translate(0.000000,797.000000) scale(0.100000,-0.100000)"
fill="#000000" stroke="none">
<path d="M3759 7966 c-2 -2 -46 -6 -96 -10 -196 -13 -470 -60 -693 -118 -114
-30 -357 -108 -415 -133 -16 -7 -58 -25 -93 -39 -112 -45 -145 -60 -279 -128
-210 -106 -431 -244 -601 -375 -79 -61 -146 -114 -207 -167 -86 -73 -343 -331
-405 -405 -25 -30 -50 -59 -56 -65 -12 -13 -164 -214 -210 -278 -27 -38 -138
-216 -192 -308 -42 -72 -162 -318 -197 -405 -20 -49 -42 -103 -50 -120 -51
-114 -160 -494 -191 -665 -3 -14 -9 -50 -14 -80 -6 -30 -12 -65 -14 -77 -3
-12 -7 -49 -11 -82 -3 -33 -8 -69 -10 -80 -12 -66 -20 -237 -19 -456 0 -256 3
-311 30 -514 66 -515 244 -1035 507 -1481 84 -143 82 -139 140 -224 27 -39 61
-89 75 -111 15 -22 32 -44 38 -50 5 -5 29 -35 52 -65 23 -30 52 -67 64 -82 13
-14 37 -43 55 -65 17 -21 50 -58 73 -83 24 -25 64 -67 90 -95 26 -27 59 -59
73 -70 15 -11 27 -25 27 -32 0 -7 4 -13 9 -13 4 0 21 -12 37 -27 17 -16 58
-53 93 -83 35 -30 68 -60 75 -65 102 -93 401 -299 581 -400 43 -24 314 -164
318 -164 5 1 62 -23 110 -45 54 -24 277 -106 299 -110 7 -1 18 -4 23 -8 9 -5
138 -43 183 -53 9 -2 42 -11 72 -19 71 -20 357 -73 435 -81 33 -4 67 -8 75
-10 95 -25 676 -26 875 -2 77 10 151 19 165 22 14 2 42 6 62 9 21 3 57 10 80
15 24 5 60 12 82 15 21 4 42 8 46 11 3 2 22 7 41 10 43 7 220 56 319 88 234
76 512 197 709 309 46 26 85 48 87 48 8 0 199 125 202 132 2 5 8 8 13 8 6 0
40 22 77 50 37 27 87 64 111 82 25 18 54 41 65 50 12 10 32 27 46 39 70 57
151 130 204 181 33 32 61 58 62 58 3 0 72 72 136 141 70 77 86 96 188 223 8
10 20 23 25 30 49 55 214 300 290 431 186 317 371 775 430 1065 2 8 10 42 18
75 8 33 18 76 21 95 3 19 8 46 11 60 13 67 25 141 31 195 3 33 8 68 10 79 19
101 25 573 11 776 -5 63 -10 117 -12 120 -2 3 -6 28 -9 57 -4 44 -20 142 -42
258 -46 250 -153 592 -263 840 -43 96 -146 300 -171 340 -14 22 -36 61 -50 88
-13 26 -28 47 -32 47 -5 0 -8 5 -8 11 0 9 -151 239 -175 265 -5 7 -19 24 -30
40 -11 15 -33 44 -50 65 -16 20 -45 55 -64 78 -95 118 -342 371 -460 471 -35
30 -69 61 -77 68 -7 6 -17 12 -22 12 -6 0 -12 4 -14 8 -3 8 -97 83 -153 122
-19 14 -48 35 -63 47 -15 13 -30 23 -34 23 -5 0 -29 15 -55 34 -151 107 -384
232 -648 346 -329 144 -746 248 -1180 295 -56 6 -581 16 -586 11z"/>
</g>
</svg>
